<?xml version="1.0" encoding="UTF-8"?>
<!-- Created with Inkscape (http://www.inkscape.org/) -->
<svg width="500" height="500" version="1.1" viewBox="0 0 132.29 132.29" xmlns="http://www.w3.org/2000/svg" xmlns:cc="http://creativecommons.org/ns#" xmlns:dc="http://purl.org/dc/elements/1.1/" xmlns:rdf="http://www.w3.org/1999/02/22-rdf-syntax-ns#">
 <metadata>
  <rdf:RDF>
   <cc:Work rdf:about="">
    <dc:format>image/svg+xml</dc:format>
    <dc:type rdf:resource="http://purl.org/dc/dcmitype/StillImage"/>
    <dc:title/>
   </cc:Work>
  </rdf:RDF>
 </metadata>
 <g transform="translate(0 -164.71)">
  <g transform="matrix(8.9909 0 0 8.9909 -586.34 -1188.9)" fill-rule="evenodd">
   <path d="m74.331 165.26c-2.5551 0-4.6116-2.1912-4.6116-4.913v-0.50148h2.3444v0.16864c0 1.5339 1.011 2.7692 2.2672 2.7692 1.2562 0 2.2678-1.2354 2.2678-2.7692v-0.16864h2.3444v0.50148c0 2.7217-2.0571 4.913-4.6122 4.913zm-4.6116-6.116v-2.5279c0.1381 0.011 0.27597 0.0221 0.41683 0.0221h1.9276v2.5068zm6.8794 0v-2.5068h2.3444v2.5068z" fill="#f0f"/>
   <path d="m70.811 150.55c-2.5551 0-4.6116 2.1912-4.6116 4.913v0.50148h2.3444v-0.16863c0-1.5339 1.011-2.7693 2.2672-2.7693 1.2562 0 2.2678 1.2354 2.2678 2.7693v0.16863h2.3444v-0.50148c0-2.7217-2.0571-4.913-4.6122-4.913zm-4.6116 6.116v2.5279c0.1381-0.011 0.27597-0.0221 0.41683-0.0221h1.9276v-2.5068zm6.8794 0v2.5068h2.3444v-2.5068z" fill="#f9f9f9"/>
  </g>
 </g>
</svg>
