<?xml version="1.0" encoding="UTF-8"?>
<!-- Created with Inkscape (http://www.inkscape.org/) -->
<svg width="500" height="500" version="1.1" viewBox="0 0 132.29 132.29" xmlns="http://www.w3.org/2000/svg" xmlns:cc="http://creativecommons.org/ns#" xmlns:dc="http://purl.org/dc/elements/1.1/" xmlns:rdf="http://www.w3.org/1999/02/22-rdf-syntax-ns#">
 <metadata>
  <rdf:RDF>
   <cc:Work rdf:about="">
    <dc:format>image/svg+xml</dc:format>
    <dc:type rdf:resource="http://purl.org/dc/dcmitype/StillImage"/>
    <dc:title/>
   </cc:Work>
  </rdf:RDF>
 </metadata>
 <g transform="translate(0 -164.71)">
  <path d="m74.92 296.41c-1.181-0.78953-13.644-29.893-13.434-31.37 0.18822-1.3309 0.57299-1.4092 8.7468-1.8034 9.2547-0.4464 15.621-1.659 19.738-3.7589 3.7174-1.8965 8.2664-6.8987 10.619-11.677 2.2095-4.4883 3.5839-5.1464 6.0141-2.8803 3.3603 3.1338 11.253 5.7468 17.36 5.7468 5.1764 0 5.6115 1.5374 2.4006 8.4873-8.2634 17.885-24.781 31.614-43.931 36.511-5.2132 1.3342-6.4484 1.4558-7.5123 0.74456zm-33.562-3.5162c-19.308-7.8318-33.866-24.515-39.61-45.393-1.6812-6.1105-2.3-20.18-1.1893-27.061 3.7721-23.382 20.277-43.338 42.883-51.847 7.8197-2.9432 12.589-3.7276 22.675-3.7293 5.7536-8.3e-4 10.872 0.33147 12.982 0.84117 14.509 3.5152 25.254 9.5075 34.641 19.318 12.535 13.1 18.552 28.077 18.552 46.176 0 10.135-0.24985 10.397-7.8736 8.2579-6.1502-1.7256-8.5434-4.6196-15.364-18.579-3.1415-6.4292-7.219-15.18-9.0613-19.447-1.8422-4.2665-3.6012-7.7574-3.9087-7.7574-0.30815 0-3.5649 0.75289-7.239 1.6738-5.3883 1.3492-6.624 1.8706-6.391 2.6914 0.16657 0.55967 3.5252 8.4265 7.4809 17.482 6.1082 13.983 7.1869 16.942 7.1564 19.63-0.05 5.9796-4.9666 12.248-12.293 15.729-3.445 1.6374-5.0653 1.9973-9.9375 2.2114-5.0398 0.22154-6.2106 0.05-8.7198-1.1476-7.8014-3.7764-14.541-14.156-24.105-37.123-5.2294-12.558-5.0697-12.283-7.1283-12.27-1.8006 9e-3 -8.2006 1.2709-12.498 2.4585-4.5171 1.2493-4.4833 1.126-2.1972 8.0639 2.9013 8.8056 12.642 34.959 20.252 54.374 9.8148 25.042 9.9151 25.34 8.9265 26.532-1.1776 1.4192-2.1932 1.2826-8.0311-1.086z" fill="#b3b3b3" stroke-width=".63325"/>
 </g>
</svg>
